<svg class="logo-police-svg" id="Calque_1" data-name="Calque 1" xmlns="http://www.w3.org/2000/svg" viewBox="0 0 152.96 152.92">
    <title>Police Flame</title>
    <path class="cls-1" d="M184.29,298.79a76.48,76.48,0,1,1-76.51-76.49A76.4,76.4,0,0,1,184.29,298.79Z"
        transform="translate(-31.34 -222.3)"></path>
    <path class="cls-2"
        d="M184.29,298.79A76.48,76.48,0,1,0,102,375c-3.39-4.09-7.57-9.68-11.28-14.91-6.24-8.75-13.65-21.91-13.9-35.05-.22-9.83,2-15.1,14.88-35.4,5-7.88,8.38-21.46,7.91-24.39s4.68,4.42,6.68,9.35c2.52,6.46,2.14,11.43-2.64,24.87-2.25,6.38-6,16.66-2.25,21.25-.45-.54,12.13-13.4,15.12-26.71,2.2-10.16,1.26-23.76-3.07-33.77-3.85-8.8-8.49-16-7.56-27.6a50.22,50.22,0,0,1,1.85-9.89,104.61,104.61,0,0,0,5.18,11.71c5.17,9.77,15.9,24.23,21,34s9,26,3.05,42.55c-5.76,16.18-11.32,21.74-17.12,34.87a193.29,193.29,0,0,0-9.93,29.31A76.44,76.44,0,0,0,184.29,298.79Z"
        transform="translate(-31.34 -222.3)"></path>
    <style>
         .cls-1 {
                fill: #004d9f;
        }
        .cls-2 {
            fill: white;
        }
  </style>
</svg>